<svg viewBox="0 0 512 512" xmlns="http://www.w3.org/2000/svg"><g fill="#34495e"><path d="m256 512c-141.16 0-256-114.84-256-256s114.84-256 256-256 256 114.84 256 256-114.84 256-256 256zm0-490.54c-129.32 0-234.54 105.21-234.54 234.54s105.22 234.54 234.54 234.54 234.54-105.21 234.54-234.54-105.21-234.54-234.54-234.54z"/><path d="m202.59 255-91 91a19.24 19.24 0 0 1 -2.78-10v-160a19.21 19.21 0 0 1 3.6-11.19zm53.41 25.55a42.2 42.2 0 0 0 30-12.42l108.31-108.34a19.18 19.18 0 0 0 -10.49-3.11h-255.64a19.21 19.21 0 0 0 -10.49 3.11l108.31 108.34a42.22 42.22 0 0 0 30 12.42zm35.14-7.27a49.55 49.55 0 0 1 -35.14 14.53 49.5 49.5 0 0 1 -35.07-14.53l-13.16-13.17-91.26 91.24a19.36 19.36 0 0 0 11.71 4h255.6a19.38 19.38 0 0 0 11.72-4l-91.26-91.24zm108.43-108.46-90.17 90.18 91 91a19.33 19.33 0 0 0 2.77-10v-160a19.19 19.19 0 0 0 -3.6-11.18z"/></g></svg>